<svg width="24" height="25" fill="none" xmlns="http://www.w3.org/2000/svg"><g clip-path="url(#clip0_302_5198)" fill="#C9C6C6"><path d="M12.002 24.5c-6.617 0-12-5.383-12-12s5.383-12 12-12 12 5.383 12 12-5.383 12-12 12zm0-23.068C5.899 1.432.934 6.397.934 12.5s4.965 11.068 11.068 11.068S23.07 18.603 23.07 12.5 18.105 1.432 12.002 1.432z"/><path d="M15.081 12.883h-6.68a.466.466 0 110-.933h6.68a.466.466 0 110 .933z"/><path d="M12.812 15.904a.465.465 0 01-.361-.76l2.23-2.735-1.979-2.562a.465.465 0 11.738-.57l2.204 2.855a.467.467 0 01-.008.58l-2.464 3.02a.464.464 0 01-.36.172z"/></g><defs><clipPath id="clip0_302_5198"><path fill="#fff" transform="translate(0 .5)" d="M0 0h24v24H0z"/></clipPath></defs></svg>