<svg width="24" height="24" fill="none" xmlns="http://www.w3.org/2000/svg"><g clip-path="url(#clip0_302_5225)" fill="#686868"><path d="M11.998 24c6.617 0 12-5.383 12-12s-5.383-12-12-12-12 5.383-12 12 5.383 12 12 12zm0-23.068C18.101.932 23.066 5.897 23.066 12s-4.965 11.068-11.068 11.068S.93 18.103.93 12 5.895.932 11.998.932z"/><path d="M8.919 12.383h6.68a.466.466 0 100-.932h-6.68a.466.466 0 100 .932z"/><path d="M11.188 15.403a.465.465 0 00.361-.76l-2.23-2.734 1.979-2.562a.465.465 0 10-.738-.57l-2.204 2.855a.467.467 0 00.008.58l2.464 3.02a.464.464 0 00.36.172z"/></g><defs><clipPath id="clip0_302_5225"><path fill="#fff" transform="matrix(-1 0 0 1 24 0)" d="M0 0h24v24H0z"/></clipPath></defs></svg>