<svg width="24" height="24" fill="none" xmlns="http://www.w3.org/2000/svg"><path d="M23.641 18.482c-.08.346-.322.613-.617.746-1.315.533-5.07 1.76-11.026 1.76-5.956 0-9.711-1.253-11.026-1.787-.322-.133-.563-.4-.617-.746a.99.99 0 01.269-.933c3.433-3.626 3.943-9.038 3.943-9.091.322-3.066 1.61-5.545 3.73-7.171a6.11 6.11 0 017.43 0c2.12 1.626 3.407 4.105 3.73 7.171 0 .053.509 5.465 3.943 9.09.241.267.322.614.241.96zM9.154 22.134A1.86 1.86 0 0011.032 24h1.932a1.86 1.86 0 001.878-1.866v-.72H9.154v.72z" fill="#fff"/></svg>