<svg width="24" height="24" fill="none" xmlns="http://www.w3.org/2000/svg"><g clip-path="url(#clip0_93_4159)" fill="#686868"><path d="M20.456 3.485c-4.679-4.679-12.292-4.679-16.97 0-4.68 4.68-4.68 12.292 0 16.97 4.678 4.68 12.291 4.68 16.97 0 4.679-4.678 4.679-12.29 0-16.97zM4.698 19.244c-4.01-4.01-4.01-10.536 0-14.547 4.01-4.01 10.535-4.01 14.546 0 4.01 4.011 4.01 10.536 0 14.547-4.01 4.01-10.536 4.01-14.546 0z"/><path d="M16.012 7.93a.857.857 0 00-1.212 0L7.931 14.8a.857.857 0 101.212 1.212l6.87-6.87a.857.857 0 000-1.212z"/><path d="M16.012 14.8L9.143 7.93a.857.857 0 10-1.212 1.213l6.87 6.869a.857.857 0 101.211-1.213z"/></g><defs><clipPath id="clip0_93_4159"><path fill="#fff" d="M0 0h24v24H0z"/></clipPath></defs></svg>