<svg width="20" height="20" fill="none" xmlns="http://www.w3.org/2000/svg"><path d="M16.785 1.348H3.191A2.58 2.58 0 00.613 3.925v8.32a2.58 2.58 0 002.569 2.578v3.775l5.425-3.775h8.178a2.58 2.58 0 002.578-2.578v-8.32a2.58 2.58 0 00-2.578-2.577zm1.48 10.897a1.48 1.48 0 01-1.48 1.48H8.263l-3.982 2.77v-2.77H3.19a1.48 1.48 0 01-1.48-1.48v-8.32c0-.815.664-1.479 1.48-1.479h13.594c.816 0 1.48.664 1.48 1.48v8.319z" fill="#686868"/><path d="M5.633 5.23h8.713v1.098H5.633V5.23zm0 2.343h8.713v1.1H5.633v-1.1zm0 2.344h8.713v1.099H5.633V9.917z" fill="#686868"/></svg>