<svg width="24" height="24" fill="none" xmlns="http://www.w3.org/2000/svg"><path d="M12 0C6.96 0 2.86 4.1 2.86 9.14c0 3.254.99 4.56 5.745 10.83a715.212 715.212 0 012.832 3.749.703.703 0 001.126 0 830.012 830.012 0 012.818-3.733c4.767-6.289 5.76-7.597 5.76-10.845C21.14 4.1 17.04 0 12 0zm2.26 19.136c-.675.89-1.424 1.879-2.26 2.99a959.114 959.114 0 00-2.274-3.007c-4.627-6.099-5.46-7.198-5.46-9.978 0-4.265 3.47-7.735 7.734-7.735 4.265 0 7.734 3.47 7.734 7.735 0 2.775-.835 3.877-5.474 9.995z" fill="#303030"/><path d="M12 4.219A4.927 4.927 0 007.078 9.14 4.927 4.927 0 0012 14.062a4.928 4.928 0 004.922-4.921A4.927 4.927 0 0012 4.219zm0 8.437a3.52 3.52 0 01-3.516-3.515A3.52 3.52 0 0112 5.625a3.52 3.52 0 013.516 3.516A3.52 3.52 0 0112 12.656z" fill="#303030"/></svg>