<svg width="24" height="24" fill="none" xmlns="http://www.w3.org/2000/svg"><path d="M12.04 1C5.949 1 1 5.949 1 12.04c0 1.958.537 3.785 1.433 5.38l-1.415 5.05a.48.48 0 00.577.596l5.266-1.305a10.961 10.961 0 005.179 1.319c6.091 0 11.04-4.949 11.04-11.04C23.08 5.949 18.131 1 12.04 1zm0 .96c5.573 0 10.08 4.507 10.08 10.08s-4.507 10.08-10.08 10.08c-1.786 0-3.46-.466-4.914-1.28a.48.48 0 00-.35-.047l-4.612 1.143 1.237-4.412a.48.48 0 00-.048-.374 10.022 10.022 0 01-1.393-5.11c0-5.573 4.507-10.08 10.08-10.08zM8.028 6.28c-.307 0-.747.114-1.108.503-.217.234-1.12 1.114-1.12 2.662 0 1.614 1.12 3.006 1.254 3.185h.001a15.198 15.198 0 001.442 1.768c.866.912 2.083 1.966 3.594 2.61.695.296 1.244.475 1.66.605.77.242 1.472.206 2 .128.394-.058.828-.248 1.258-.52.43-.271.85-.61 1.036-1.123.133-.368.2-.708.225-.988a2.18 2.18 0 00.004-.377c-.009-.115.001-.202-.106-.377-.223-.367-.476-.377-.74-.508a87.143 87.143 0 00-.984-.476c-.418-.2-.78-.376-1.004-.455-.14-.051-.313-.124-.561-.096-.249.028-.494.207-.637.419-.135.2-.68.844-.846 1.033l-.054-.027c-.205-.102-.457-.188-.829-.384a6.857 6.857 0 01-1.346-.935v-.001c-.758-.667-1.288-1.505-1.456-1.786.012-.013-.001.003.023-.02v-.002c.172-.168.323-.37.452-.517.181-.21.261-.394.348-.566.173-.344.077-.722-.023-.92v-.002c.007.014-.054-.12-.12-.276l-.24-.574c-.18-.431-.38-.915-.5-1.198v-.001c-.14-.334-.33-.574-.58-.69-.248-.116-.467-.083-.476-.084h-.001c-.178-.008-.372-.01-.566-.01zm0 .96c.185 0 .368.002.52.01.158.007.148.008.118-.006-.03-.015.01-.02.1.193.117.277.319.763.499 1.195l.242.579c.067.159.104.248.146.332v.001l.001.001c.042.082.038.03.024.058-.102.201-.116.25-.218.369-.156.18-.315.38-.4.463-.073.072-.206.185-.29.406-.082.221-.043.524.09.75.178.302.763 1.255 1.673 2.056a7.85 7.85 0 001.532 1.064c.427.225.774.356.852.395.184.09.386.162.62.134a.935.935 0 00.565-.316l.001-.001c.172-.194.68-.775.925-1.134.01.004.007.001.088.03v.001c.038.014.502.221.916.418.414.198.834.403.97.47.197.098.29.161.314.161a.966.966 0 01-.003.158 3.01 3.01 0 01-.171.745c-.05.14-.314.429-.646.639-.332.21-.736.358-.886.38-.45.067-.984.09-1.571-.093a16.055 16.055 0 01-1.572-.573c-1.332-.569-2.464-1.536-3.273-2.387a14.252 14.252 0 01-.96-1.122c-.23-.3-.33-.455-.414-.566-.15-.197-1.06-1.464-1.06-2.605 0-1.208.56-1.681.864-2.008a.569.569 0 01.404-.197z" fill="#303030"/></svg>