<svg width="24" height="24" fill="none" xmlns="http://www.w3.org/2000/svg"><g clip-path="url(#clip0_157_6014)"><path d="M24 20.667A3.301 3.301 0 0120.667 24H3.333A3.301 3.301 0 010 20.667V3.333A3.301 3.301 0 013.333 0h17.334A3.301 3.301 0 0124 3.333v17.334z" fill="#C9C6C6"/><path d="M13.934 16.267c1-.2 1.933-.6 2.733-1.133.667-.4.867-1.267.467-1.934a1.405 1.405 0 00-1.933-.466c-1.934 1.2-4.467 1.2-6.4 0a1.406 1.406 0 10-1.467 2.4c.867.533 1.8.933 2.733 1.133l-2.666 2.667c-.534.533-.534 1.4 0 2 .266.266.6.4 1 .4a1.47 1.47 0 001-.4l2.6-2.6 2.6 2.6c.533.533 1.4.533 2 0 .533-.534.533-1.4 0-2l-2.667-2.667zm-1.933-13.6a4.638 4.638 0 00-4.667 4.667c0 2.6 2.067 4.666 4.667 4.666 2.6 0 4.666-2.066 4.666-4.666 0-2.6-2.066-4.667-4.666-4.667zm0 6.667c-1.134 0-2-.867-2-2 0-1.134.866-2 2-2 1.133 0 2 .866 2 2 0 1.133-.867 2-2 2z" fill="#F7F7F7"/></g><defs><clipPath id="clip0_157_6014"><path fill="#fff" d="M0 0h24v24H0z"/></clipPath></defs></svg>