<svg width="24" height="24" fill="none" xmlns="http://www.w3.org/2000/svg"><g clip-path="url(#clip0_157_6017)"><path d="M24 4.558a9.829 9.829 0 01-2.827.775 4.932 4.932 0 002.164-2.724 9.872 9.872 0 01-3.127 1.195 4.924 4.924 0 00-8.39 4.49A13.978 13.978 0 011.67 3.15a4.912 4.912 0 00-.665 2.477 4.92 4.92 0 002.19 4.097 4.914 4.914 0 01-2.23-.616v.062a4.925 4.925 0 003.95 4.828 4.926 4.926 0 01-2.224.085 4.93 4.93 0 004.6 3.42 9.875 9.875 0 01-6.116 2.108c-.397 0-.79-.023-1.175-.069a13.94 13.94 0 007.548 2.212c9.057 0 14.009-7.503 14.009-14.01 0-.213-.005-.425-.014-.637A10.02 10.02 0 0024 4.558z" fill="#C9C6C6"/></g><defs><clipPath id="clip0_157_6017"><path fill="#fff" d="M0 0h24v24H0z"/></clipPath></defs></svg>