<svg width="20" height="20" fill="none" xmlns="http://www.w3.org/2000/svg"><path fill-rule="evenodd" clip-rule="evenodd" d="M10 7.729h1.724V3.706l.003-.044.007-.044a.386.386 0 01.052-.12.338.338 0 01.37-.146c.04.01.078.03.113.055.011.009.021.02.032.028l7.586 7.315.029.03a.387.387 0 010 .479c-.009.012-.02.022-.029.032l-7.586 7.314c-.029.025-.035.033-.068.052a.334.334 0 01-.119.04l-.042.003-.041-.002c-.037-.007-.047-.007-.082-.02a.357.357 0 01-.222-.299l-.003-.044v-4.023H10c-1.403 0-2.807.009-4.21 0a5.577 5.577 0 01-1.97-.39 5.871 5.871 0 01-2.254-1.598 6.33 6.33 0 01-1.27-2.276A6.582 6.582 0 010 8.096V2.29c0-.027 0-.053.002-.08a.33.33 0 01.005-.041l.002-.008.001-.007.002-.006v-.003l.001-.003V2.14l.002-.002v-.005l.002-.002v-.005l.002-.002a.388.388 0 01.043-.09v-.002h.001v-.001l.001-.001a.362.362 0 01.131-.117.324.324 0 01.255-.02.339.339 0 01.096.052l.002.002.002.001.001.001h.001l.001.002.002.001.004.003v.001a.364.364 0 01.11.16l.002.005v.002l.002.006v.002c.002.003.002.006.003.01l.002.006v.003l.001.001.001.005v.004h.001v.004a.332.332 0 01.007.038l.001.027v.011l.003.138a5.79 5.79 0 00.301 1.714 5.54 5.54 0 001.35 2.17A5.134 5.134 0 004.179 7.43a4.922 4.922 0 001.685.299H10zm0 5.851h2.07c.013.001.027.001.04.003a.33.33 0 01.082.021.359.359 0 01.22.298l.002.044v3.562l6.729-6.487-6.729-6.488v3.562l-.002.044c-.007.039-.007.049-.02.086a.359.359 0 01-.2.212.326.326 0 01-.081.021l-.042.003H10c-1.403 0-2.807.009-4.21 0a5.565 5.565 0 01-1.7-.29 5.787 5.787 0 01-1.943-1.118A6.174 6.174 0 01.691 5.17l-.005-.01c-.002 1-.002 2.001.004 3.002A5.768 5.768 0 00.972 9.88a5.57 5.57 0 001.1 1.946 5.176 5.176 0 002.046 1.433 4.936 4.936 0 001.745.32H10z" fill="#B92B4F"/></svg>