<svg xmlns="http://www.w3.org/2000/svg" width="700" height="440"><defs><style>@font-face{font-family:&quot;Ambassador&quot;;src:url(Ambassador.woff) format(&quot;woff&quot;);src:url(Ambassador.ttf) format(&quot;truetype&quot;);font-weight:400;font-style:normal;font-display:swap}</style><style>@import url(http://fonts.googleapis.com/css?family=Open+Sans:100,100i,200,200i,300,300i,400,400i,500,500i,600,600i,700,700i,800,800i,900,900i);</style></defs><rect width="100%" height="100%" fill="#fff"/><g transform="translate(350 220)"><g transform="matrix(.2 0 0 .2 -250.55 0)" id="Layer_1"><linearGradient id="SVGID_SVGID_1__1" gradientUnits="userSpaceOnUse" x1="256" y1="512" x2="256" y2="0"><stop offset="0%" stop-color="#393997"/><stop offset="100%" stop-color="#bb2b4e"/></linearGradient><filter id="SVGID_54" y="-20%" height="140%" x="-20%" width="140%"><feGaussianBlur in="SourceAlpha"/><feOffset result="oBlur"/><feFlood flood-color="#000" flood-opacity="1"/><feComposite in2="oBlur" operator="in"/><feMerge><feMergeNode/><feMergeNode in="SourceGraphic"/></feMerge></filter><path transform="translate(-256 -256)" d="M411.8 459.1C368.6 492.3 314.6 512 256 512 114.6 512 0 397.4 0 256S114.6 0 256 0s256 114.6 256 256c0 74.8-32 142-83.1 188.8-21.7-23.2-29.9-44.3-32.5-60.4-3-18.7-.4-58.9-.4-58.9s6 31.7 17.8 36.3c19-29 30-63.7 30-100.9 0-102.1-82.7-184.8-184.8-184.8-102.1 0-184.8 82.8-184.8 184.8C74.2 363 157 445.7 259 445.7c35.6 0 68.8-10.1 97-27.5 9.8 13.4 26.9 29.6 55.8 40.9zM203.4 260.8c0-17.3-14-31.3-31.3-31.3s-31.3 14-31.3 31.3 14 31.3 31.3 31.3 31.3-14 31.3-31.3zm56.4 31.3c-17.3 0-31.3-14-31.3-31.3s14-31.3 31.3-31.3 31.3 14 31.3 31.3-14.1 31.3-31.3 31.3zm87.6 0c-17.3 0-31.3-14-31.3-31.3s14-31.3 31.3-31.3 31.3 14 31.3 31.3-14 31.3-31.3 31.3z" fill="url(#SVGID_SVGID_1__1)" filter="url(#SVGID_54)"/></g><g transform="translate(54.95 -.5)" filter="url(#SVGID_55)"><linearGradient id="SVGID_56" gradientUnits="userSpaceOnUse" gradientTransform="translate(-245.69 -27.12)" x1="0" y1="0" x2="491.376" y2="0"><stop offset="0%" stop-color="#cc2b5e"/><stop offset="100%" stop-color="#753a88"/></linearGradient><filter id="SVGID_55" y="-20%" height="140%" x="-20%" width="140%"><feGaussianBlur in="SourceAlpha"/><feOffset result="oBlur"/><feFlood flood-color="#000" flood-opacity="1"/><feComposite in2="oBlur" operator="in"/><feMerge><feMergeNode/><feMergeNode in="SourceGraphic"/></feMerge></filter><text font-family="Ambassador" font-size="48" font-weight="500" style="white-space:pre" paint-order="stroke" stroke="#000" stroke-width="0" stroke-linejoin="round" fill="url(#SVGID_56)"><tspan x="-245.69" y="15.08">ОТВЕТ АВТОЭКСПЕРТА</tspan></text></g></g></svg>