<svg width="24" height="24" fill="none" xmlns="http://www.w3.org/2000/svg"><g clip-path="url(#clip0_1045_2429)" fill="#fff"><path d="M12 4c-1.103 0-2 .897-2 2s.897 2 2 2 2-.897 2-2-.897-2-2-2zm0 3c-.551 0-1-.449-1-1 0-.551.449-1 1-1 .551 0 1 .449 1 1 0 .551-.449 1-1 1zm1.5 2h-4a.5.5 0 00-.5.5v2a.5.5 0 00.5.5h.5v7.5a.5.5 0 00.5.5h3a.5.5 0 00.5-.5v-10a.5.5 0 00-.5-.5zM13 19h-2v-7.5a.5.5 0 00-.5-.5H10v-1h3v9z"/><path d="M12 0C5.383 0 0 5.383 0 12s5.383 12 12 12 12-5.383 12-12S18.617 0 12 0zm0 23C5.935 23 1 18.065 1 12S5.935 1 12 1s11 4.935 11 11-4.935 11-11 11z"/></g><defs><clipPath id="clip0_1045_2429"><path fill="#fff" d="M0 0h24v24H0z"/></clipPath></defs></svg>