<svg width="24" height="24" fill="none" xmlns="http://www.w3.org/2000/svg"><g clip-path="url(#clip0_1045_2403)" fill="#fff"><path d="M23.317 10.75h-2.474a.557.557 0 00-.549.548v11.558l.549-.548H3.157l.548.548V11.298a.557.557 0 00-.548-.549H.683c.132.313.258.625.39.938C2.35 10.541 3.628 9.394 4.9 8.247L11 2.773c.461-.417.928-.829 1.388-1.246h-.773c1.278 1.147 2.556 2.293 3.829 3.44l6.1 5.475c.46.417.927.828 1.387 1.245.527.472 1.3-.302.774-.773a2345.694 2345.694 0 01-3.829-3.44L13.777 2c-.46-.417-.927-.828-1.388-1.245a.556.556 0 00-.773 0 2357.32 2357.32 0 00-3.83 3.44l-6.1 5.474c-.46.417-.926.829-1.387 1.246-.362.323-.071.938.39.938h2.473l-.548-.549v11.559c0 .296.252.548.548.548h17.686a.557.557 0 00.549-.548v-11.56l-.549.549h2.474c.697-.006.702-1.103-.005-1.103z"/><path d="M14.638 22.308H9.323l.548.548V14.19l-.548.549h5.315l-.548-.549v8.668c0 .707 1.097.707 1.097 0v-8.67a.557.557 0 00-.549-.549H9.323a.557.557 0 00-.549.549v8.668c0 .296.252.548.549.548h5.315c.703 0 .703-1.097 0-1.097z"/></g><defs><clipPath id="clip0_1045_2403"><path fill="#fff" d="M0 0h24v24H0z"/></clipPath></defs></svg>