<svg width="24" height="24" fill="none" xmlns="http://www.w3.org/2000/svg"><g clip-path="url(#clip0_1045_2418)"><path fill-rule="evenodd" clip-rule="evenodd" d="M12.008.571c-4.623 0-4.08 2.558-4.08 5.71 0 .09 0 .18.006.265l-.006.017v.032c0 1.315.511 2.67 1.263 3.697.768 1.042 1.792 1.754 2.817 1.754 1.025 0 2.052-.712 2.817-1.754.752-1.025 1.264-2.382 1.264-3.697v-.032l-.006-.017c.006-.088.006-.176.006-.264 0-3.153.542-5.71-4.08-5.71zM9.714 3.373c.26.002.556.087.875.178.436.124.91.253 1.425.253.516 0 .985-.132 1.42-.253.638-.183 1.184-.338 1.527.134.215.299.22.663.226 1.053.008.298.014.607.097.944l.232.94c-.008 1.182-.47 2.41-1.15 3.335-.662.9-1.52 1.511-2.352 1.511-.832 0-1.696-.61-2.359-1.511-.68-.929-1.141-2.15-1.15-3.335l.233-.94c.083-.334.089-.648.097-.944.008-.39.014-.757.227-1.053.172-.237.394-.315.653-.313zM4.868 5.062a4.02 4.02 0 00-.842.086c-2.056.31-1.781 1.82-1.781 3.638 0 .058.005.115.005.173l-.005.005v.022c0 .851.331 1.73.82 2.397.497.677 1.161 1.133 1.824 1.133.664 0 1.33-.456 1.825-1.133.489-.664.814-1.546.814-2.397v-.033c.003-.058 0-.109 0-.167 0-1.857.29-3.4-1.915-3.66a4.04 4.04 0 00-.745-.064zm14.265 0c-.293 0-.55.025-.783.07-2.139.282-1.857 1.808-1.857 3.648 0 .059.003.115.006.173l-.005.006v.022c0 .851.33 1.73.82 2.396.497.683 1.155 1.14 1.819 1.14.663 0 1.327-.457 1.824-1.134.49-.664.82-1.546.82-2.397v-.022l-.005-.01c.003-.059.006-.11.006-.168 0-1.838.284-3.364-1.846-3.649a4.04 4.04 0 00-.8-.075zM4.91 6.859c.937-.001 1.866.079 1.884.248.14.191.143.429.15.68.004.194.006.392.06.61l.151.61c-.005.766-.3 1.554-.744 2.154-.429.583-.986.982-1.528.982-.533 0-1.09-.4-1.522-.982-.44-.6-.74-1.388-.744-2.154l.15-.61c.056-.218.057-.416.06-.61.006-.251.014-.489.151-.68.053-.164.996-.246 1.933-.248zm14.249 0c.936-.001 1.865.079 1.883.248.138.191.146.429.151.68.006.194.006.392.06.61l.151.61c-.006.766-.303 1.554-.745 2.154-.428.583-.986.982-1.527.982-.536 0-1.094-.4-1.522-.982-.442-.6-.74-1.388-.745-2.154l.15-.61a2.51 2.51 0 00.066-.61c.005-.251.008-.489.145-.68.051-.164.996-.246 1.933-.248zM4.533 13.088C2.216 13.156 0 13.95 0 15.478v3.239c0 .448.362.81.81.81h2.822v-2.64c0-.361.062-.723.189-1.063.478-1.288 1.75-2.083 2.984-2.564a10.47 10.47 0 00-2.272-.172zm14.934 0a10.534 10.534 0 00-2.272.178c1.233.478 2.501 1.27 2.98 2.558.127.343.188.698.188 1.063v2.64h2.823c.45 0 .815-.363.815-.81v-3.233c0-1.528-2.217-2.328-4.533-2.396zm-10.859.372c-2.418.536-4.269 1.675-4.269 3.427v5.03a1.51 1.51 0 001.506 1.512h12.306c.832 0 1.51-.68 1.51-1.512v-5.03c0-1.755-1.853-2.896-4.274-3.427-.757 3.056-1.453 4.7-2.66 7.238l-.405-4.82a.382.382 0 01.06-.237l.458-.853c.027-.05.033-.101.005-.151a.161.161 0 00-.14-.081h-1.366c-.06 0-.104.031-.135.08-.027.05-.022.105.006.157l.453.848c.044.08.068.154.06.242l-.41 4.901c-1.233-2.586-1.942-4.232-2.704-7.324z" fill="#fff"/></g><defs><clipPath id="clip0_1045_2418"><path fill="#fff" d="M0 0h24v24H0z"/></clipPath></defs></svg>