<svg width="24" height="24" fill="none" xmlns="http://www.w3.org/2000/svg"><path d="M3.446 0A.443.443 0 003 .448V23.55c0 .25.198.449.446.449h17.11a.443.443 0 00.444-.45V.449A.442.442 0 0020.556 0H3.446zm.445.899H20.11v22.204H3.89V.899zm2.407 2.025a.443.443 0 00-.446.448c0 .25.198.45.446.45h11.404c.248 0 .446-.2.446-.45a.443.443 0 00-.445-.448H6.298zm0 2.875c-.248 0-.446.2-.446.45v8.627c0 .25.198.45.446.45h11.404c.248 0 .446-.2.446-.45V6.248c0-.25-.197-.45-.445-.45H6.298zm.444.898h10.516v5.659l-2.091-2.11a.439.439 0 00-.63 0l-1.11 1.12-2.538-2.559a.437.437 0 00-.628 0l-3.519 3.55v-5.66zm3.832 3.064l2.537 2.558a.439.439 0 00.63 0l1.11-1.122 2.406 2.428v.802l-10.515.002v-.802l3.643-3.676.19-.19zm2.862 7.541a.233.233 0 01-.015.002H6.297a.443.443 0 00-.446.448c0 .25.198.45.446.45h8.86a.24.24 0 01.015-.002h2.53a.443.443 0 00.446-.448c0-.25-.198-.45-.446-.45h-4.266zM6.298 20.18c-.248 0-.446.199-.446.449s.198.45.446.45h11.404c.248 0 .446-.2.446-.45s-.197-.45-.445-.45H6.298z" fill="#fff"/></svg>