<svg width="24" height="24" fill="none" xmlns="http://www.w3.org/2000/svg"><path d="M20.145 1.617H3.832A3.097 3.097 0 00.738 4.711v9.983a3.097 3.097 0 003.083 3.093v4.53l6.51-4.53h9.814a3.097 3.097 0 003.093-3.093V4.711a3.097 3.097 0 00-3.093-3.094zm1.775 13.077c0 .979-.796 1.775-1.775 1.775H9.918l-4.779 3.325V16.47H3.832a1.777 1.777 0 01-1.775-1.775V4.711c0-.98.796-1.775 1.775-1.775h16.313c.979 0 1.775.796 1.775 1.775v9.983z" fill="#C9C6C6"/><path d="M6.76 6.276h10.456v1.318H6.76V6.276zm0 2.812h10.456v1.319H6.76v-1.32zm0 2.812h10.456v1.319H6.76V11.9z" fill="#C9C6C6"/></svg>