<svg width="40" height="40" fill="none" xmlns="http://www.w3.org/2000/svg"><path d="M5.844 39.452h.201l.302-.102 8.464-6.646h13.451a3.5 3.5 0 002.494-1.048 3.605 3.605 0 001.032-2.53v-3.17l2.469 1.994.302.102h.202a.512.512 0 00.302-.46v-5.624h1.41a3.5 3.5 0 002.494-1.048A3.605 3.605 0 0040 18.39V4.125c0-.949-.371-1.859-1.033-2.53A3.501 3.501 0 0036.474.548h-21.26a3.5 3.5 0 00-2.493 1.048 3.606 3.606 0 00-1.033 2.53v4.55H3.526a3.5 3.5 0 00-2.493 1.048A3.606 3.606 0 000 12.254v16.87c0 .95.371 1.86 1.033 2.531a3.5 3.5 0 002.493 1.048h2.015v6.289c.004.2.122.38.303.46zm6.851-35.325c0-.678.266-1.328.738-1.808a2.502 2.502 0 011.781-.749h21.26a2.5 2.5 0 011.78.749c.473.48.739 1.13.739 1.808V18.39c0 .678-.266 1.328-.739 1.807a2.5 2.5 0 01-1.78.749h-1.915a.508.508 0 00-.504.511v5.01l-2.267-1.84V12.255c0-.949-.371-1.86-1.032-2.53a3.5 3.5 0 00-2.494-1.048H12.695v-4.55zM3.526 31.68a2.5 2.5 0 01-1.78-.748 2.575 2.575 0 01-.738-1.808v-16.87c0-.678.265-1.328.738-1.807a2.5 2.5 0 011.78-.75h24.736a2.5 2.5 0 011.781.75c.473.479.738 1.13.738 1.807v16.87c0 .678-.265 1.328-.738 1.808a2.501 2.501 0 01-1.781.748H14.61l-.303.103-7.758 6.185v-5.776a.515.515 0 00-.147-.362.5.5 0 00-.357-.15H3.526z" fill="url(#paint0_linear_152_2427)"/><path d="M12.274 23.517v.816H7.155v-.714l2.562-2.852c.315-.351.559-.648.73-.892a2.78 2.78 0 00.366-.66c.072-.198.107-.398.107-.602 0-.258-.053-.49-.16-.698a1.207 1.207 0 00-.463-.505 1.39 1.39 0 00-.74-.188c-.348 0-.638.068-.871.204-.23.132-.401.319-.516.558-.114.24-.171.516-.171.827h-.994c0-.44.097-.843.29-1.208.193-.365.48-.655.86-.87.379-.218.846-.328 1.401-.328.494 0 .917.088 1.268.264.35.171.62.415.805.73.19.311.285.677.285 1.096 0 .229-.04.461-.118.698-.075.233-.18.465-.317.698a5.415 5.415 0 01-.467.688c-.176.225-.364.447-.564.666l-2.095 2.272h3.92zm2.514-3.583h.709c.347 0 .633-.057.859-.172.23-.118.4-.277.51-.478a1.38 1.38 0 00.172-.687c0-.301-.05-.553-.15-.758a1.006 1.006 0 00-.452-.462c-.2-.103-.454-.155-.762-.155-.28 0-.526.055-.741.166a1.22 1.22 0 00-.5.462 1.37 1.37 0 00-.177.71h-.994c0-.398.1-.76.301-1.086.2-.326.482-.585.843-.779.365-.193.788-.29 1.268-.29.473 0 .886.084 1.24.253.355.164.63.412.828.74.197.327.295.733.295 1.22 0 .197-.046.408-.14.634-.09.222-.23.43-.424.623-.19.193-.437.353-.741.478-.304.122-.67.183-1.096.183h-.848v-.602zm0 .816v-.596h.848c.498 0 .91.06 1.236.177.325.119.581.276.768.473.19.197.322.414.397.65.079.233.118.466.118.698 0 .366-.062.69-.188.973a1.981 1.981 0 01-.52.72 2.226 2.226 0 01-.785.445c-.3.1-.628.15-.983.15-.34 0-.66-.048-.961-.145a2.491 2.491 0 01-.79-.419 1.962 1.962 0 01-.537-.682 2.145 2.145 0 01-.193-.929h.993c0 .272.06.51.178.715.121.204.293.363.515.477.226.111.49.167.795.167.305 0 .566-.052.784-.156a1.13 1.13 0 00.51-.483c.122-.215.183-.485.183-.811 0-.326-.068-.593-.204-.8a1.198 1.198 0 00-.58-.468 2.25 2.25 0 00-.875-.155h-.71zm10.022.951v.817h-5.65v-.586l3.502-5.42h.81l-.87 1.57-2.314 3.62h4.522zm-1.09-5.188v7.82h-.994v-7.82h.994z" fill="url(#paint1_linear_152_2427)"/><defs><linearGradient id="paint0_linear_152_2427" x1="8" y1="-6.26" x2="45.952" y2="15.042" gradientUnits="userSpaceOnUse"><stop stop-color="#D01162"/><stop offset="1" stop-color="#2039BD"/></linearGradient><linearGradient id="paint1_linear_152_2427" x1="10.3" y1="10.708" x2="26.338" y2="21.798" gradientUnits="userSpaceOnUse"><stop stop-color="#D01162"/><stop offset="1" stop-color="#2039BD"/></linearGradient></defs></svg>