<svg width="32" height="32" fill="none" xmlns="http://www.w3.org/2000/svg"><path d="M17.66 32h-3.32a.869.869 0 01-.868-.868V18.528H.868A.867.867 0 010 17.659v-3.318a.869.869 0 01.868-.869h12.604V.868A.868.868 0 0114.341 0h3.318a.869.869 0 01.869.868v12.604h12.604a.869.869 0 01.868.869v3.318a.869.869 0 01-.868.869H18.528v12.604a.869.869 0 01-.869.868zm-2.451-1.736h1.582V17.66a.868.868 0 01.869-.869h12.603V15.21H17.66a.868.868 0 01-.868-.868V1.737H15.21V14.34a.869.869 0 01-.868.868H1.737v1.582H14.34a.868.868 0 01.868.869v12.604z" fill="url(#paint0_linear_534_10785)"/><defs><linearGradient id="paint0_linear_534_10785" x1="6.4" y1="-5.6" x2="37.159" y2="11.193" gradientUnits="userSpaceOnUse"><stop stop-color="#D01162"/><stop offset="1" stop-color="#2039BD"/></linearGradient></defs></svg>