<svg width="68" height="68" fill="none" xmlns="http://www.w3.org/2000/svg"><path d="M32.024 26.722v.145c-.002.22-.008.44-.018.657l-.002.026.001.027c.012.358.02.713.02 1.068 0 15.271-11.017 27.817-25.164 29.537 4.27-3.895 7.463-9.037 9.055-14.877l.215-.788-.815-.053C7.14 41.932.666 35.091.666 26.722A15.784 15.784 0 017.83 13.474h0a15.532 15.532 0 018.517-2.529c7.028 0 12.983 4.657 14.971 11.077h0c.46 1.484.707 3.062.707 4.7z" fill="#fff" stroke="url(#paint0_linear_306_5189)" stroke-width="1.333"/><path d="M67.333 26.784v-.077a15.87 15.87 0 00-.707-4.7c-1.988-6.42-7.942-11.076-14.971-11.076-3.142 0-6.063.93-8.517 2.53l24.195 13.323zm0 0c0 .244-.007.486-.019.724l-.001.027v.027c.013.359.02.714.02 1.069 0 15.271-11.015 27.817-25.162 29.537 4.27-3.895 7.463-9.037 9.055-14.877l.215-.788-.815-.053c-8.177-.532-14.65-7.374-14.65-15.743a15.785 15.785 0 017.162-13.247l24.195 13.324z" fill="#fff" stroke="url(#paint1_linear_306_5189)" stroke-width="1.333"/><defs><linearGradient id="paint0_linear_306_5189" x1="6.538" y1="1.749" x2="42.506" y2="14.919" gradientUnits="userSpaceOnUse"><stop stop-color="#D01162"/><stop offset="1" stop-color="#2039BD"/></linearGradient><linearGradient id="paint1_linear_306_5189" x1="41.847" y1="1.735" x2="77.814" y2="14.905" gradientUnits="userSpaceOnUse"><stop stop-color="#D01162"/><stop offset="1" stop-color="#2039BD"/></linearGradient></defs></svg>