<svg width="40" height="40" fill="none" xmlns="http://www.w3.org/2000/svg"><path d="M18.526 1.455C8.304 1.455 0 9.769 0 20c0 10.232 8.304 18.545 18.526 18.545 8.748 0 16.105-6.094 18.04-14.27v.001a1.004 1.004 0 10-1.952-.47c-1.726 7.285-8.266 12.734-16.089 12.734C9.382 36.54 2 29.145 2 20 2 10.854 9.382 3.46 18.526 3.46c7.225 0 13.363 4.631 15.62 11.074L30.414 12.7a1.001 1.001 0 00-1.344.454c-.246.498-.043 1.1.453 1.347l5.858 2.882a.999.999 0 001.312-.407l3.17-5.67a1.002 1.002 0 00-.022-1.05.998.998 0 00-.945-.454.999.999 0 00-.782.517l-2.046 3.665C33.571 6.69 26.65 1.455 18.526 1.455z" fill="#000"/></svg>