<svg width="44" height="44" fill="none" xmlns="http://www.w3.org/2000/svg"><g clip-path="url(#clip0_90_4145)"><path d="M22 .29C10.022.29.29 10.024.29 22c0 11.977 9.734 21.71 21.71 21.71 11.977 0 21.71-9.734 21.71-21.71C43.71 10.023 33.976.29 22 .29zm0 .842c11.5 0 20.868 9.367 20.868 20.868 0 11.501-9.367 20.869-20.868 20.869C10.499 42.869 1.13 33.5 1.13 22 1.131 10.5 10.5 1.132 22 1.132zm.021 10.72a.414.414 0 00-.297.125l-6.297 6.297a.398.398 0 000 .59l.01.011c.132.138.396.152.566-.019l.205-.205h.002l5.372-5.374v18.448c0 .243.184.425.428.425.245 0 .426-.18.426-.425V13.288l5.577 5.577a.406.406 0 00.303.125.4.4 0 00.3-.125.398.398 0 000-.591l-6.297-6.298a.413.413 0 00-.297-.125z" fill="url(#paint0_linear_90_4145)"/></g><defs><linearGradient id="paint0_linear_90_4145" x1="8.974" y1="-7.309" x2="50.711" y2="15.477" gradientUnits="userSpaceOnUse"><stop stop-color="#D01162"/><stop offset="1" stop-color="#2039BD"/></linearGradient><clipPath id="clip0_90_4145"><path fill="#fff" d="M0 0h44v44H0z"/></clipPath></defs></svg>