<svg width="24" height="24" fill="none" xmlns="http://www.w3.org/2000/svg"><g clip-path="url(#clip0_93_2746)"><path d="M23.727 22.407l-5.858-5.857a10.054 10.054 0 002.334-6.448C20.203 4.532 15.67 0 10.1 0S0 4.532 0 10.102s4.531 10.1 10.101 10.1c2.45 0 4.698-.877 6.449-2.333l5.857 5.858a.93.93 0 001.32 0 .933.933 0 000-1.32zM1.867 10.102c0-4.541 3.693-8.236 8.234-8.236s8.235 3.695 8.235 8.236c0 4.54-3.694 8.234-8.235 8.234-4.54 0-8.235-3.694-8.235-8.234z" fill="#fff"/></g><defs><clipPath id="clip0_93_2746"><path fill="#fff" d="M0 0h24v24H0z"/></clipPath></defs></svg>