<svg width="24" height="24" fill="none" xmlns="http://www.w3.org/2000/svg"><g clip-path="url(#clip0_20_2957)" fill="#fff"><path d="M23.09 8.563l-2.768-.408a9.563 9.563 0 00-.915-1.614l1.053-2.696a1.074 1.074 0 00-.465-1.329L16.02.154a1.063 1.063 0 00-1.394.266l-1.725 2.267a7.776 7.776 0 00-1.803 0L9.372.417A1.068 1.068 0 007.984.151L4.016 2.51c-.452.253-.658.822-.475 1.339l1.05 2.689a9.233 9.233 0 00-.913 1.617l-2.76.407C.396 8.629 0 9.09 0 9.637v4.729c0 .545.395 1.008.91 1.073l2.768.408c.238.542.54 1.074.915 1.614L3.54 20.157a1.073 1.073 0 00.465 1.33l3.99 2.371c.17.095.354.141.535.141.322 0 .635-.145.845-.418l1.724-2.267a9.383 9.383 0 001.804 0l1.726 2.27a1.07 1.07 0 001.388.267l1.15-.684a.5.5 0 00-.51-.859l-1.234.67-1.896-2.496a.502.502 0 00-.462-.193 9.686 9.686 0 01-2.126 0 .506.506 0 00-.462.193l-1.98 2.51-3.99-2.372c-.038-.022-.044-.07-.031-.103l1.15-2.944a.5.5 0 00-.062-.477 8.633 8.633 0 01-1.066-1.889.501.501 0 00-.392-.31l-3.047-.449c-.003 0-.053-.084-.056-.084V9.636l.056-.085 3.047-.45a.5.5 0 00.392-.31A8.203 8.203 0 015.56 6.909a.5.5 0 00.065-.481L4.48 3.499c-.014-.042-.001-.103.038-.125l4.062-2.35 1.897 2.495a.507.507 0 00.462.193c.832-.107 1.293-.107 2.126 0a.502.502 0 00.461-.193l1.98-2.509 3.99 2.37c.037.023.044.07.031.104l-1.15 2.944a.5.5 0 00.062.477 8.635 8.635 0 011.066 1.889.5.5 0 00.392.31l3.047.449c.003 0 .053.085.056.085v4.728l-.056.084-1.954.288a.498.498 0 00-.422.567c.04.273.292.465.567.422l1.944-.287c.524-.067.92-.529.92-1.074v-4.73c-.001-.544-.395-1.007-.91-1.073z"/><path d="M17.827 14.12c-.558-.558-.862-1.266-.832-1.943.053-1.234-.463-2.412-1.578-3.601-.954-1.017-2.235-1.594-3.48-1.576a4.94 4.94 0 00-3.063 1.123.499.499 0 00.057.817l3.055 1.833a2.718 2.718 0 01-1.464 2.155l-2.736-1.642a.54.54 0 00-.517 0 .5.5 0 00-.26.41 4.962 4.962 0 001.353 3.732A5.023 5.023 0 0012 16.998a4.57 4.57 0 001.142-.152l6.382 6.383a2.6 2.6 0 001.854.768 2.623 2.623 0 002.62-2.62c0-.7-.273-1.359-.768-1.854l-5.404-5.403zm3.552 8.878h-.002a1.61 1.61 0 01-1.146-.475l-6.589-6.588a.502.502 0 00-.496-.127c-.428.13-.79.19-1.145.19a3.962 3.962 0 01-2.91-1.256 3.963 3.963 0 01-1.044-2.133l2.197 1.318a.504.504 0 00.48.019l.211-.105A3.718 3.718 0 0013 10.499a.501.501 0 00-.243-.43l-2.64-1.583a3.881 3.881 0 011.832-.487c.965-.014 1.977.447 2.74 1.26.933.997 1.35 1.91 1.307 2.874-.042.956.368 1.938 1.124 2.694l5.404 5.404a1.62 1.62 0 01-1.145 2.767z"/></g><defs><clipPath id="clip0_20_2957"><path fill="#fff" d="M0 0h24v24H0z"/></clipPath></defs></svg>