<svg display="none" xmlns="http://www.w3.org/2000/svg">

    <symbol id="mainIcon1" viewBox="0 0 24 24">
        <path d="M23.3166 10.7491H20.8426C20.5464 10.7491 20.2941 11.0014 20.2941 11.2976V15.2145V21.4246V22.8563C20.4751 22.6753 20.6616 22.4887 20.8426 22.3077H14.8578H5.32927H3.15693C3.33792 22.4887 3.52447 22.6753 3.70545 22.8563V18.9394V12.7293V11.2976C3.70545 11.0014 3.45309 10.7491 3.15693 10.7491H0.682872C0.814505 11.0617 0.940779 11.3746 1.07241 11.6871C2.35068 10.5407 3.62871 9.39412 4.90144 8.24765C6.93659 6.42086 8.96636 4.59965 11.0014 2.77271C11.4621 2.35581 11.9285 1.94447 12.3892 1.52736H11.6157C12.894 2.67377 14.172 3.82038 15.4447 4.96685C17.4799 6.79364 19.5097 8.61485 21.5447 10.4418C22.0054 10.8587 22.4718 11.27 22.9325 11.6871C23.4593 12.159 24.2326 11.3854 23.7061 10.9136C22.4278 9.76719 21.1498 8.62058 19.8771 7.47411C17.8419 5.64732 15.8121 3.82612 13.7771 1.99918C13.3164 1.58228 12.8499 1.17093 12.3892 0.753821C12.1589 0.545276 11.8461 0.545276 11.6157 0.753821C10.3374 1.90024 9.05942 3.04685 7.78668 4.19332C5.75153 6.02011 3.72177 7.84132 1.68676 9.66825C1.22605 10.0852 0.759579 10.4965 0.298877 10.9136C-0.0631115 11.2373 0.227514 11.8517 0.688416 11.8517H3.16247L2.61395 11.3031V15.22V21.4301V22.8618C2.61395 23.158 2.86631 23.4103 3.16247 23.4103H9.14729H18.6758H20.8481C21.1443 23.4103 21.3966 23.158 21.3966 22.8618V18.9449V12.7348V11.3031C21.2157 11.4841 21.0291 11.6707 20.8481 11.8517H23.3222C24.0188 11.8461 24.0244 10.749 23.3166 10.749L23.3166 10.7491Z"/>
        <path d="M14.6384 22.3078H9.99736H9.32257C9.50356 22.4888 9.69011 22.6753 9.87109 22.8563V15.2478V14.189C9.6901 14.37 9.50355 14.5566 9.32257 14.7375H13.9636H14.6384C14.4574 14.5566 14.2708 14.37 14.0899 14.189V21.7975V22.8563C14.0899 23.564 15.1869 23.564 15.1869 22.8563V15.2478V14.189C15.1869 13.8928 14.9345 13.6405 14.6384 13.6405H9.99736H9.32257C9.02639 13.6405 8.77405 13.8929 8.77405 14.189V21.7975V22.8563C8.77405 23.1525 9.0264 23.4048 9.32257 23.4048H13.9636H14.6384C15.3405 23.4048 15.3405 22.3078 14.6384 22.3078Z"/>
    </symbol>

    <symbol id="mainIcon2" viewBox="0 0 24 24">
        <path fill-rule="evenodd" clip-rule="evenodd" d="M12.0082 0.571411C7.3849 0.571411 7.92796 3.12864 7.92796 6.28162C7.92796 6.37011 7.92796 6.46035 7.93354 6.54613L7.92796 6.56271V6.59507C7.92796 7.91046 8.43927 9.26426 9.19086 10.2921C9.95902 11.3339 10.9829 12.0463 12.0081 12.0463C13.0333 12.0463 14.06 11.3339 14.8254 10.2921C15.577 9.26695 16.0885 7.91042 16.0885 6.59507V6.56271L16.0829 6.54613C16.0885 6.4578 16.0885 6.37011 16.0885 6.28162C16.0885 3.12855 16.6313 0.571411 12.0081 0.571411H12.0082ZM9.71433 3.37259C9.97358 3.37499 10.2695 3.45965 10.5887 3.55053C11.0254 3.67489 11.4996 3.8042 12.0136 3.8042C12.5303 3.8042 12.9992 3.67218 13.4331 3.55053C14.0715 3.36813 14.6177 3.213 14.9605 3.68542C15.1761 3.98388 15.1816 4.34819 15.1871 4.73786C15.1953 5.03633 15.2008 5.34517 15.2843 5.68239L15.5165 6.6215C15.5082 7.80423 15.0467 9.03125 14.3669 9.95697C13.7036 10.8578 12.8456 11.4681 12.0138 11.4681C11.182 11.4681 10.3183 10.8578 9.65519 9.95697C8.97552 9.0284 8.51392 7.80693 8.50564 6.6215L8.73778 5.68239C8.82069 5.34805 8.82675 5.03362 8.83504 4.73786C8.84333 4.3482 8.84875 3.98117 9.0616 3.68542C9.23427 3.44785 9.45557 3.37036 9.71466 3.37244L9.71433 3.37259ZM4.8678 5.06186C4.55274 5.06186 4.2718 5.0955 4.0258 5.14812C1.96984 5.45759 2.2447 6.96763 2.2447 8.78587C2.2447 8.84391 2.25028 8.90051 2.25028 8.95855L2.2447 8.96429V8.98629C2.2447 9.83739 2.57601 10.7167 3.06502 11.3827C3.56249 12.0596 4.22604 12.5161 4.88931 12.5161C5.55257 12.5161 6.21886 12.0598 6.71359 11.3827C7.20274 10.7194 7.52849 9.83739 7.52849 8.98629V8.95329C7.53136 8.89525 7.52849 8.84407 7.52849 8.78587C7.52849 6.92889 7.81771 5.38632 5.61253 5.12661C5.39155 5.08515 5.14408 5.06188 4.8678 5.06188V5.06186ZM19.1327 5.06186C18.8398 5.06186 18.5823 5.08673 18.3502 5.13202C16.2113 5.4139 16.4935 6.94006 16.4935 8.78046C16.4935 8.8385 16.4964 8.89526 16.4991 8.95314L16.4935 8.95888V8.98088C16.4935 9.83198 16.8248 10.7113 17.3138 11.3772C17.8113 12.0598 18.4694 12.5161 19.1327 12.5161C19.796 12.5161 20.4596 12.0596 20.957 11.3826C21.4461 10.7194 21.7775 9.83737 21.7775 8.98627V8.96427L21.7719 8.95326C21.7748 8.89523 21.7775 8.84405 21.7775 8.78585C21.7775 6.94818 22.0622 5.42202 19.9316 5.1374C19.6995 5.09037 19.4313 5.06199 19.1329 5.06199L19.1327 5.06186ZM4.91106 6.85904C5.84759 6.85793 6.77665 6.93749 6.79465 7.10745C6.9356 7.29814 6.93751 7.53602 6.9458 7.78745C6.94867 7.98085 6.95138 8.17903 7.00527 8.39729L7.15642 9.00712C7.15084 9.77259 6.85651 10.561 6.41168 11.1607C5.98344 11.7437 5.42589 12.143 4.88425 12.143C4.35095 12.143 3.79336 11.7437 3.36225 11.1607C2.92283 10.561 2.62295 9.77259 2.61752 9.00712L2.76867 8.39729C2.82399 8.17901 2.82527 7.98084 2.82814 7.78745C2.83372 7.53601 2.84201 7.29814 2.97928 7.10745C3.03174 6.94307 3.97512 6.86064 4.91153 6.85904H4.91106ZM19.1596 6.85904C20.0965 6.85793 21.0252 6.93749 21.0432 7.10745C21.1813 7.29814 21.1888 7.53602 21.1944 7.78745C21.2 7.98085 21.2 8.17903 21.2538 8.39729L21.405 9.00712C21.3994 9.77259 21.1024 10.561 20.6601 11.1607C20.2318 11.7437 19.6743 12.143 19.1327 12.143C18.5966 12.143 18.0391 11.7437 17.6107 11.1607C17.1685 10.561 16.8714 9.77259 16.8658 9.00712L17.0169 8.39729C17.0722 8.17901 17.0788 7.98084 17.0816 7.78745C17.0872 7.53601 17.0899 7.29814 17.2272 7.10745C17.2784 6.94307 18.2226 6.86064 19.1595 6.85904H19.1596ZM4.5331 13.0876C2.21596 13.1562 -0.000366211 13.9511 -0.000366211 15.4786V18.7169C-0.000366211 19.1646 0.36156 19.5266 0.809267 19.5266H3.63196V16.8874C3.63196 16.5254 3.69382 16.164 3.82105 15.8241C4.29889 14.5363 5.57024 13.7412 6.80542 13.2603C6.08906 13.1213 5.30559 13.0647 4.5331 13.0876L4.5331 13.0876ZM19.4674 13.0876C18.6952 13.0655 17.9116 13.1268 17.1952 13.2656C18.4277 13.7436 19.6963 14.5361 20.1745 15.8239C20.3016 16.1666 20.3634 16.5224 20.3634 16.8872V19.5264H23.1861C23.6365 19.5264 24.001 19.1645 24.001 18.7168V15.4838C24.001 13.9564 21.7839 13.1562 19.4676 13.0875L19.4674 13.0876ZM8.60821 13.4601C6.19033 13.9961 4.33923 15.1353 4.33923 16.8872V21.9174C4.33923 22.7492 5.01319 23.4286 5.84498 23.4286H18.1507C18.9825 23.4286 19.6618 22.749 19.6618 21.9174V16.8872C19.6618 15.1324 17.808 13.9905 15.3871 13.4601C14.63 16.5164 13.934 18.1609 12.7263 20.6976L12.3216 15.878C12.3133 15.7924 12.3355 15.7208 12.3811 15.6406L12.8398 14.7879C12.8674 14.7382 12.873 14.6865 12.8454 14.6368C12.8178 14.587 12.7629 14.5558 12.7049 14.5558H11.3393C11.2786 14.5558 11.2349 14.587 11.2044 14.6368C11.1768 14.6865 11.1823 14.7407 11.21 14.7932L11.6633 15.6406C11.7074 15.7208 11.731 15.7951 11.7227 15.8834L11.3127 20.7843C10.0802 18.1977 9.37136 16.5524 8.60858 13.4602L8.60821 13.4601Z"/>
    </symbol>

    <symbol id="mainIcon3" viewBox="0 0 24 24">
        <path d="M3.44559 0C3.19683 0 3 0.197592 3 0.447929V23.5506C3 23.8008 3.19756 24 3.44559 24H20.5559C20.8039 24 21 23.8015 21 23.5506V0.447929C21 0.197043 20.8048 0 20.5559 0H3.44559ZM3.89118 0.898792H20.1099V23.1028H3.89118V0.898792ZM6.29765 2.92417C6.04889 2.92417 5.85206 3.12176 5.85206 3.3721C5.85206 3.62225 6.04962 3.82149 6.29765 3.82149H17.7025C17.9505 3.82149 18.1481 3.62225 18.1481 3.3721C18.1481 3.12195 17.9512 2.92417 17.7025 2.92417H6.29765ZM6.29765 5.79888C6.04962 5.79888 5.85206 5.99812 5.85206 6.24827V14.8761C5.85206 15.1263 6.04962 15.3255 6.29765 15.3255H17.7025C17.9505 15.3255 18.1481 15.1263 18.1481 14.8761V6.24827C18.1481 5.99812 17.9505 5.79888 17.7025 5.79888H6.29765ZM6.74161 6.69748H17.2581V12.3559L15.1665 10.2465C14.9904 10.0689 14.7126 10.0696 14.5372 10.2465L13.4263 11.3654L10.8891 8.80733C10.713 8.6297 10.4366 8.6297 10.2612 8.80733L6.74245 12.3561V6.96817L6.74161 6.69748ZM10.5744 9.76065L13.1108 12.3187C13.2869 12.4964 13.5647 12.4956 13.7401 12.3187L14.851 11.1967L17.2573 13.6251V14.4274L6.74217 14.4289V13.6266L10.385 9.95127L10.5744 9.76065ZM13.4362 17.3023C13.4316 17.303 13.4217 17.3038 13.4209 17.3038H6.2968C6.04804 17.3038 5.85121 17.5014 5.85121 17.7517C5.85121 18.0018 6.04877 18.2011 6.2968 18.2011H15.1566C15.1612 18.2004 15.1712 18.1996 15.1719 18.1996H17.7022C17.951 18.1996 18.1478 18.002 18.1478 17.7517C18.1478 17.5015 17.9502 17.3023 17.7022 17.3023H13.4362ZM6.29764 20.1785C6.04961 20.1785 5.85205 20.3778 5.85205 20.6279C5.85205 20.8781 6.04961 21.0773 6.29764 21.0773H17.7025C17.9505 21.0773 18.1481 20.8781 18.1481 20.6279C18.1481 20.3778 17.9505 20.1785 17.7025 20.1785H6.29764Z"/>
    </symbol>

    <symbol id="mainIcon4" viewBox="0 0 24 24">
        <path d="M12 4C10.897 4 10 4.89695 10 6.00002C10 7.10308 10.897 8.00003 12 8.00003C13.1031 8.00003 14 7.10308 14 6.00002C14 4.89695 13.103 4 12 4ZM12 7C11.4488 7 11 6.55127 11 6.00002C11 5.44877 11.4488 5.00003 12 5.00003C12.5513 5.00003 13 5.44877 13 6.00002C13 6.55127 12.5513 7 12 7Z"/>
        <path d="M13.5 9H9.50002C9.22364 9 9 9.22364 9 9.50002V11.5C9 11.7764 9.22364 12 9.50002 12H10V19.5C10 19.7764 10.2237 20.0001 10.5 20.0001H13.5C13.7764 20.0001 14.0001 19.7764 14.0001 19.5V9.50002C14 9.22364 13.7764 9 13.5 9ZM13 19H11V11.5C11 11.2236 10.7763 11 10.5 11H9.99994V9.99998H12.9999V19H13Z"/>
        <path d="M12 0C5.38331 0 0 5.38331 0 12C0 18.6167 5.38331 24 12 24C18.6167 24 24 18.6167 24 12C24 5.38331 18.6167 0 12 0ZM12 23C5.93456 23 0.999984 18.0654 0.999984 12C0.999984 5.93456 5.93456 0.999984 12 0.999984C18.0654 0.999984 23 5.93456 23 12C23 18.0654 18.0654 23 12 23Z"/>
    </symbol>

    <symbol id="arrowBottom" viewBox="0 0 14 8">
        <path d="M1 1L7 7L13 1" stroke-width="1.2" stroke-linejoin="round"/>
    </symbol>

    <symbol id="userIcon" viewBox="0 0 24 24">
        <path d="M11.9845 12.4627C7.21094 12.4717 3.26204 16.251 3.02356 21.0272C3.01721 21.1627 3.03851 21.2981 3.08616 21.4252C3.13381 21.5522 3.20681 21.6682 3.30072 21.7662C3.39464 21.8641 3.5075 21.9419 3.63244 21.9948C3.75738 22.0477 3.89178 22.0747 4.02746 22.074H19.9806C20.1156 22.0736 20.2492 22.0459 20.3732 21.9925C20.4972 21.9391 20.6091 21.8611 20.7022 21.7633C20.7953 21.6655 20.8676 21.5498 20.9148 21.4233C20.9619 21.2968 20.983 21.162 20.9767 21.0272C20.7379 16.245 16.7797 12.4632 12.0001 12.4627H11.9845Z"/>
        <path d="M12.0005 1.92603C9.47007 1.92603 7.40712 3.99868 7.4071 6.53191C7.4071 9.06514 9.47005 11.1449 12.0005 11.1449C14.5309 11.1449 16.601 9.06514 16.601 6.53191C16.601 3.99868 14.5309 1.92603 12.0005 1.92603V1.92603Z"/>
    </symbol>

    <symbol id="noteIcon" viewBox="0 0 24 24">
        <path d="M23.6411 18.4815C23.5606 18.8281 23.3192 19.0946 23.0241 19.2279C21.7095 19.7611 17.9538 20.9875 11.9981 20.9875C6.04248 20.9875 2.28667 19.7345 0.972138 19.2013C0.650268 19.068 0.40867 18.8015 0.355159 18.4549C0.274692 18.1082 0.381919 17.7618 0.623508 17.5217C4.05739 13.8961 4.56711 8.48428 4.56711 8.43096C4.88898 5.36527 6.17684 2.88588 8.29609 1.25968C10.496 -0.419892 13.5274 -0.419892 15.7272 1.25968C17.8465 2.88588 19.1343 5.36508 19.4562 8.43096C19.4562 8.48433 19.966 13.8961 23.3998 17.5217C23.641 17.7884 23.7215 18.135 23.641 18.4814L23.6411 18.4815ZM9.15439 22.1339C9.15439 23.1736 9.98598 24 11.0322 24H12.9638C14.0101 24 14.8417 23.1736 14.8417 22.1339V21.4141H9.15429L9.15439 22.1339Z"/>
    </symbol>

    <symbol id="prev" viewBox="0 0 24 24">
        <path d="M11.998 24C18.6145 24 23.998 18.6168 23.998 12C23.998 5.38286 18.6146 0 11.998 0C5.38149 0 -0.00195354 5.38286 -0.00195354 12C-0.00195354 18.6171 5.38149 24 11.998 24ZM11.998 0.932039C18.1009 0.932039 23.066 5.89714 23.066 12C23.066 18.1029 18.1009 23.068 11.998 23.068C5.89519 23.068 0.930086 18.1029 0.930086 12C0.930086 5.89714 5.89519 0.932039 11.998 0.932039Z"/>
        <path d="M8.91875 12.383H15.5983C15.8561 12.383 16.0645 12.1743 16.0645 11.9168C16.0645 11.6597 15.8561 11.4507 15.5983 11.4507L8.91875 11.451C8.66096 11.451 8.45259 11.6597 8.45259 11.9172C8.45259 12.1743 8.66096 12.383 8.91875 12.383V12.383Z"/>
        <path d="M11.1885 15.4035C11.2919 15.4035 11.3959 15.369 11.4827 15.2985C11.6826 15.136 11.7119 14.8424 11.5493 14.6428L9.31901 11.9087L11.2977 9.34719C11.4553 9.14369 11.4179 8.85081 11.2138 8.69347C11.0097 8.53549 10.7171 8.57449 10.5604 8.77734L8.35581 11.6318C8.22351 11.8034 8.22676 12.0433 8.36361 12.2114L10.8279 15.2323C10.9193 15.3447 11.0535 15.4036 11.1884 15.4036L11.1885 15.4035Z"/>
    </symbol>

    <symbol id="next" viewBox="0 0 24 24">
        <path d="M12.002 24C5.38548 24 0.00195312 18.6168 0.00195312 12C0.00195312 5.38286 5.38539 0 12.002 0C18.6185 0 24.002 5.38286 24.002 12C24.002 18.6171 18.6185 24 12.002 24ZM12.002 0.932039C5.8991 0.932039 0.933992 5.89714 0.933992 12C0.933992 18.1029 5.8991 23.068 12.002 23.068C18.1048 23.068 23.0699 18.1029 23.0699 12C23.0699 5.89714 18.1048 0.932039 12.002 0.932039Z"/>
        <path d="M15.0813 12.383H8.4017C8.14392 12.383 7.93555 12.1743 7.93555 11.9168C7.93555 11.6597 8.14392 11.4507 8.4017 11.4507L15.0813 11.451C15.339 11.451 15.5474 11.6597 15.5474 11.9172C15.5474 12.1743 15.339 12.383 15.0813 12.383V12.383Z"/>
        <path d="M12.8115 15.4035C12.7081 15.4035 12.6041 15.369 12.5173 15.2985C12.3174 15.136 12.2881 14.8424 12.4507 14.6428L14.681 11.9087L12.7023 9.34719C12.5447 9.14369 12.5821 8.85081 12.7862 8.69347C12.9903 8.53549 13.2829 8.57449 13.4396 8.77734L15.6442 11.6318C15.7765 11.8034 15.7732 12.0433 15.6364 12.2114L13.1721 15.2323C13.0807 15.3447 12.9465 15.4036 12.8116 15.4036L12.8115 15.4035Z"/>
    </symbol>

    <symbol id="reaction" viewBox="0 0 32 32">
        <path fill-rule="evenodd" clip-rule="evenodd" d="M7.75806 29.805C6.40334 32.8975 0 32.5263 0 28.568V12.9819C0 9.642 6.15758 9.27104 7.63503 11.745C10.4675 10.3842 13.6696 8.28146 13.3 4.69425C12.5611 -1.98573 18.2261 -1.2437 20.1963 5.06546C20.9352 7.41581 20.4426 9.14759 19.8267 11.127H28.8168C32.3881 11.2508 32.8807 15.5801 30.6641 17.0649C31.8956 18.5493 31.403 21.2707 29.4326 22.2604C30.6641 23.8686 29.8022 26.7135 28.0779 27.5795C28.9401 29.1877 27.9547 31.7852 24.6298 31.909C19.0881 32.1564 12.9304 32.0328 7.75872 29.8061L7.75806 29.805ZM6.77288 28.568C6.77288 31.4131 1.23117 31.4131 1.23117 28.568V12.9819C1.23117 10.7554 6.77288 10.879 6.77288 12.9819V28.568ZM8.00434 28.568C12.9304 30.9183 18.9645 31.0419 24.5064 30.671C27.9545 30.5472 27.8314 27.4548 25.7378 27.4548H24.1368C23.521 27.4548 23.2747 26.5888 24.1368 26.5888H27.2156C28.8166 26.465 29.9248 22.5067 27.2156 22.5067H25.122C24.2599 22.5067 24.2599 21.5171 25.122 21.5171H27.8312C30.4174 21.5171 31.1563 17.3114 28.2008 17.3114H25.9841C24.9989 17.3114 25.122 16.3218 25.9841 16.3218H28.8166C31.5258 16.3218 31.5258 12.3635 28.8166 12.3635H18.1025C19.0877 9.64217 19.8265 8.03396 18.9646 5.43634C17.6099 0.735636 13.9155 -0.625191 14.5314 4.57033C14.9009 8.65247 11.4526 11.2503 8.0047 12.9821V28.5682L8.00434 28.568Z"/>
    </symbol>

    <symbol id="reaction2" viewBox="0 0 32 32">
        <path fill-rule="evenodd" clip-rule="evenodd" d="M24.2419 2.19504C25.5967 -0.897511 32 -0.526268 32 3.43201L32 19.0181C32 22.358 25.8424 22.729 24.365 20.255C21.5325 21.6158 18.3304 23.7185 18.7 27.3057C19.4389 33.9857 13.774 33.2437 11.8037 26.9345C11.0648 24.5842 11.5574 22.8524 12.1733 20.873L3.18323 20.873C-0.388114 20.7492 -0.880732 16.4199 1.3359 14.9351C0.104446 13.4507 0.597006 10.7293 2.56736 9.73959C1.3359 8.13143 2.19781 5.28649 3.92208 4.42048C3.05992 2.81233 4.04534 0.214771 7.37017 0.0909669C12.9119 -0.156427 19.0696 -0.0328419 24.2413 2.19394L24.2419 2.19504ZM25.2271 3.43201C25.2271 0.586891 30.7688 0.586891 30.7688 3.43201L30.7688 19.0181C30.7688 21.2446 25.2271 21.121 25.2271 19.0181L25.2271 3.43201ZM23.9957 3.43201C19.0696 1.08165 13.0355 0.958079 7.49364 1.32904C4.04554 1.45285 4.16857 4.54516 6.26218 4.54516L7.86317 4.54516C8.47899 4.54516 8.72532 5.41117 7.86317 5.41117L4.78438 5.41117C3.18339 5.53498 2.07519 9.49331 4.78438 9.49331L6.87799 9.49331C7.74014 9.49331 7.74014 10.4829 6.87799 10.4829L4.1688 10.4829C1.58263 10.4829 0.843725 14.6886 3.79924 14.6886L6.01588 14.6886C7.00106 14.6886 6.87803 15.6782 6.01588 15.6782L3.18343 15.6782C0.474229 15.6782 0.474229 19.6365 3.18343 19.6365L13.8975 19.6365C12.9124 22.3578 12.1735 23.966 13.0354 26.5637C14.3901 31.2644 18.0845 32.6252 17.4687 27.4297C17.0991 23.3475 20.5474 20.7497 23.9953 19.0179L23.9953 3.43184L23.9957 3.43201Z"/>
    </symbol>

    <symbol id="reaction3" viewBox="0 0 32 32">
        <path d="M7.41253 28.6869C7.41253 29.1076 7.67364 29.2329 8.00349 28.9601L15.2251 22.9913C15.5518 22.7218 16.0767 22.7186 16.4071 22.9913L23.6287 28.9601C23.9548 29.2297 24.2197 29.1155 24.2197 28.6869V2.2776C24.2197 1.85688 23.884 1.51597 23.4534 1.51597H8.17877C7.75566 1.51597 7.41249 1.84895 7.41249 2.2776L7.41253 28.6869ZM7.06296 31.7102C6.41232 32.2483 5.88477 32.0014 5.88477 31.1732V1.51111C5.88477 0.676536 6.56845 0 7.41045 0H24.2211C25.0636 0 25.7468 0.682882 25.7468 1.51111V31.1732C25.7468 32.0078 25.2267 32.2546 24.5686 31.7102L16.4071 24.9644C16.0804 24.6944 15.5502 24.6954 15.2241 24.9644L7.06296 31.7102Z"/>
    </symbol>

    <symbol id="reaction4" viewBox="0 0 32 32">
        <path d="M16.0001 4.10742C9.96439 4.10742 4.31816 8.03252 0.10657 15.1599C-0.0355233 15.3998 -0.0355233 15.6981 0.10657 15.9378C4.31829 23.0656 9.96452 26.9904 16.0001 26.9904C22.0357 26.9904 27.6821 23.0653 31.895 15.9378C32.035 15.6975 32.035 15.4002 31.895 15.1599C27.6817 8.03219 22.037 4.10742 16.0001 4.10742ZM16.0001 25.4652C10.6318 25.4652 5.54983 21.9471 1.65041 15.549C5.5499 9.15091 10.632 5.63274 16.0001 5.63274C21.3683 5.63274 26.4504 9.15078 30.3498 15.549C26.4503 21.947 21.3683 25.4652 16.0001 25.4652ZM16.0001 10.21V10.2098C14.5856 10.2098 13.2292 10.7724 12.2289 11.7738C11.2287 12.7752 10.6667 14.1331 10.6667 15.5492C10.6667 16.9654 11.2287 18.3233 12.2289 19.3247C13.2292 20.326 14.5856 20.8887 16.0001 20.8887C17.4146 20.8887 18.7711 20.3261 19.7713 19.3247C20.7715 18.3233 21.3335 16.9654 21.3335 15.5492C21.3335 14.1331 20.7715 12.7751 19.7713 11.7738C18.771 10.7724 17.4146 10.2098 16.0001 10.2098V10.21ZM16.0001 19.3632V19.363C14.9896 19.363 14.0208 18.9613 13.3065 18.2459C12.592 17.5308 12.1907 16.5608 12.1907 15.5492C12.1907 14.5376 12.592 13.5676 13.3065 12.8526C14.0208 12.1372 14.9896 11.7355 16.0001 11.7355C17.0106 11.7355 17.9795 12.1372 18.6937 12.8526C19.4082 13.5677 19.8095 14.5376 19.8095 15.5492C19.8095 16.5608 19.4083 17.5308 18.6937 18.2459C17.9794 18.9612 17.0106 19.363 16.0001 19.363V19.3632Z"/>
    </symbol>

    <symbol id="reaction5" viewBox="0 0 32 32">
        <path d="M24.4316 0H8.49791C7.61969 0 6.90454 0.718027 6.90454 1.59977V31.3597C6.90454 31.9013 7.53189 32.1974 7.95218 31.851L16.0569 24.1231C16.2953 23.9278 16.634 23.9278 16.8725 24.1231L24.9772 31.8446C25.3913 32.191 26.0249 31.895 26.0249 31.3534V1.59977C26.0249 0.718027 25.3097 0 24.4315 0H24.4316Z"/>
    </symbol>

    <symbol id="reaction6" viewBox="0 0 24 24">
        <path d="M16.7855 1.34766H3.19106C1.76971 1.34766 0.613281 2.50386 0.613281 3.92544V12.245C0.613281 13.6633 1.76467 14.8177 3.18191 14.8227V18.598L8.60746 14.8227H16.7855C18.2069 14.8227 19.3633 13.6663 19.3633 12.245V3.92544C19.3633 2.50386 18.2069 1.34766 16.7855 1.34766ZM18.2646 12.245C18.2646 13.0605 17.6011 13.7241 16.7855 13.7241H8.26274L4.28054 16.4952V13.7241H3.19106C2.37544 13.7241 1.71191 13.0605 1.71191 12.245V3.92544C1.71191 3.10971 2.37544 2.44629 3.19106 2.44629H16.7855C17.6011 2.44629 18.2646 3.10971 18.2646 3.92544V12.245Z"/>
        <path d="M5.63281 5.22974H14.3461V6.32837H5.63281V5.22974Z"/>
        <path d="M5.63281 7.57349H14.3461V8.67209H5.63281V7.57349Z"/>
        <path d="M5.63281 9.91724H14.3461V11.0158H5.63281V9.91724Z"/>
    </symbol>

    <symbol id="reaction7" viewBox="0 0 20 20">
        <path d="M15.2708 0H5.31226C4.76338 0 4.31641 0.448767 4.31641 0.999855V19.5998C4.31641 19.9383 4.7085 20.1234 4.97118 19.9068L10.0367 15.0769C10.1856 14.9549 10.3973 14.9549 10.5464 15.0769L15.6118 19.9029C15.8706 20.1194 16.2666 19.9344 16.2666 19.5958V0.999855C16.2666 0.448767 15.8196 0 15.2708 0H15.2708Z"/>
    </symbol>


    <symbol id="picture" viewBox="0 0 24 24">
        <path d="M22.9457 24H1.1875V0H22.9457V24ZM2.30331 22.8837H21.8299V1.11628H2.30331V22.8837Z" fill="#151516"/>
        <path d="M2.30273 16.1865H21.8294V17.3028H2.30273V16.1865Z" fill="#151516"/>
        <path d="M18.3705 13.9531H5.76186C5.25968 13.9531 4.86929 13.674 4.64605 13.2274C4.42282 12.7808 4.5346 12.2787 4.81355 11.8878L7.2684 9.0971C7.71486 8.59471 8.55174 8.53896 9.05354 9.04135L10.2251 10.2134C10.2808 10.2691 10.3365 10.2691 10.3926 10.2134L13.5724 7.03212C14.0746 6.41823 15.0229 6.47398 15.5251 7.08788L19.319 11.9997C19.598 12.3902 19.6537 12.8926 19.4305 13.2835C19.2633 13.6741 18.8168 13.9532 18.3707 13.9532L18.3705 13.9531ZM8.21663 9.82281C8.21663 9.82281 8.1609 9.82281 8.10518 9.87856L5.65032 12.6693C5.5946 12.725 5.5946 12.725 5.65032 12.7808C5.65032 12.8365 5.70605 12.8365 5.76178 12.8365H18.3704C18.4261 12.8365 18.4261 12.8365 18.4819 12.7808V12.6693L14.6879 7.75747C14.6322 7.64597 14.5765 7.70172 14.5204 7.75747L14.4093 7.81353L11.2851 10.939C10.8387 11.4972 9.94608 11.5529 9.44388 11.0505L8.27237 9.87852C8.27237 9.82277 8.27237 9.82277 8.21664 9.82277L8.21663 9.82281Z" fill="#151516"/>
        <path d="M6.76551 6.69747C5.81723 6.69747 5.0918 5.97176 5.0918 5.02305C5.0918 4.07434 5.8172 3.34863 6.76551 3.34863C7.71382 3.34863 8.43922 4.07434 8.43922 5.02305C8.43922 5.97176 7.71382 6.69747 6.76551 6.69747ZM6.76551 4.46491C6.43083 4.46491 6.2076 4.68823 6.2076 5.02305C6.2076 5.35787 6.43083 5.58119 6.76551 5.58119C7.10019 5.58119 7.32341 5.35787 7.32341 5.02305C7.32341 4.68823 7.10019 4.46491 6.76551 4.46491Z" fill="#151516"/>
    </symbol>


    <symbol id="Visibility" viewBox="0 0 24 24">
        <path d="M12.0001 3.08032C7.4733 3.08032 3.23862 6.02415 0.0799273 11.3697C-0.0266424 11.5496 -0.0266424 11.7733 0.0799273 11.9531C3.23872 17.2989 7.47339 20.2425 12.0001 20.2425C16.5268 20.2425 20.7616 17.2987 23.9212 11.9531C24.0263 11.7729 24.0263 11.5499 23.9212 11.3697C20.7613 6.0239 16.5278 3.08032 12.0001 3.08032ZM12.0001 19.0986C7.97382 19.0986 4.16237 16.4601 1.2378 11.6615C4.16242 6.86294 7.97396 4.22431 12.0001 4.22431C16.0262 4.22431 19.8378 6.86284 22.7624 11.6615C19.8377 16.46 16.0262 19.0986 12.0001 19.0986ZM12.0001 7.65726V7.65707C10.9392 7.65707 9.92188 8.07904 9.17171 8.83009C8.42154 9.58114 8.00002 10.5996 8.00002 11.6617C8.00002 12.7238 8.42152 13.7422 9.17171 14.4933C9.92191 15.2443 10.9392 15.6663 12.0001 15.6663C13.061 15.6663 14.0783 15.2443 14.8285 14.4933C15.5786 13.7422 16.0001 12.7238 16.0001 11.6617C16.0001 10.5996 15.5787 9.58111 14.8285 8.83009C14.0783 8.07907 13.061 7.65707 12.0001 7.65707V7.65726ZM12.0001 14.5222V14.522C11.2422 14.522 10.5156 14.2207 9.97987 13.6842C9.44399 13.1478 9.14301 12.4204 9.14301 11.6617C9.14301 10.903 9.44396 10.1755 9.97987 9.63917C10.5156 9.10268 11.2422 8.80135 12.0001 8.80135C12.7579 8.80135 13.4846 9.10265 14.0203 9.63917C14.5562 10.1755 14.8572 10.903 14.8572 11.6617C14.8572 12.4204 14.5562 13.1479 14.0203 13.6842C13.4846 14.2207 12.7579 14.522 12.0001 14.522V14.5222Z"/>
    </symbol>

    <symbol id="like" viewBox="0 0 24 24">
        <path fill-rule="evenodd" clip-rule="evenodd" d="M5.81854 22.3537C4.80251 24.6731 0 24.3947 0 21.426V9.73645C0 7.2315 4.61818 6.95328 5.72627 8.80873C7.85061 7.78815 10.2522 6.21109 9.97499 3.52069C9.42082 -1.4893 13.6695 -0.932776 15.1472 3.79909C15.7014 5.56186 15.3319 6.8607 14.8701 8.34524H21.6126C24.2911 8.4381 24.6606 11.6851 22.9981 12.7987C23.9217 13.912 23.5522 15.953 22.0745 16.6953C22.9981 17.9014 22.3516 20.0351 21.0584 20.6846C21.7051 21.8907 20.966 23.8389 18.4724 23.9318C14.3161 24.1173 9.69779 24.0246 5.81904 22.3545L5.81854 22.3537ZM5.07966 21.426C5.07966 23.5598 0.92338 23.5598 0.92338 21.426V9.73645C0.92338 8.06654 5.07966 8.15922 5.07966 9.73645V21.426ZM6.00325 21.426C9.6978 23.1888 14.2234 23.2814 18.3798 23.0032C20.9658 22.9104 20.8736 20.5911 19.3034 20.5911H18.1026C17.6408 20.5911 17.456 19.9416 18.1026 19.9416H20.4117C21.6125 19.8488 22.4436 16.88 20.4117 16.88H18.8415C18.1949 16.88 18.1949 16.1378 18.8415 16.1378H20.8734C22.813 16.1378 23.3672 12.9835 21.1506 12.9835H19.4881C18.7492 12.9835 18.8415 12.2414 19.4881 12.2414H21.6124C23.6443 12.2414 23.6443 9.27261 21.6124 9.27261H13.5769C14.3157 7.23163 14.8699 6.02547 14.2235 4.07726C13.2074 0.551727 10.4367 -0.468893 10.8985 3.42775C11.1757 6.48935 8.58942 8.43774 6.00352 9.73658V21.4261L6.00325 21.426Z"/>
    </symbol>

    <symbol id="message" viewBox="0 0 24 24">
        <path d="M20.1449 1.61719H3.83162C2.12599 1.61719 0.738281 3.00463 0.738281 4.71053V14.694C0.738281 16.396 2.11995 17.7813 3.82063 17.7873V22.3177L10.3313 17.7873H20.1449C21.8506 17.7873 23.2383 16.3996 23.2383 14.694V4.71053C23.2383 3.00463 21.8506 1.61719 20.1449 1.61719ZM21.9199 14.694C21.9199 15.6726 21.1237 16.469 20.1449 16.469H9.91763L5.13899 19.7943V16.469H3.83162C2.85287 16.469 2.05664 15.6726 2.05664 14.694V4.71053C2.05664 3.73165 2.85287 2.93555 3.83162 2.93555H20.1449C21.1237 2.93555 21.9199 3.73165 21.9199 4.71053V14.694Z"/>
        <path d="M6.76025 6.27563H17.2162V7.59399H6.76025V6.27563Z"/>
        <path d="M6.76025 9.08813H17.2162V10.4065H6.76025V9.08813Z"/>
        <path d="M6.76025 11.9006H17.2162V13.2189H6.76025V11.9006Z"/>
    </symbol>




</svg>
