<svg width="16" height="16" fill="none" xmlns="http://www.w3.org/2000/svg"><path d="M14.032 14.636a.355.355 0 01-.388.094l-2.409-.907-1.729 2.052A.346.346 0 019.24 16c-.028 0-.052-.004-.077-.007a.349.349 0 01-.262-.25l-.998-3.698-.994 3.698a.349.349 0 01-.262.25c-.025.003-.05.007-.077.007a.346.346 0 01-.266-.125l-1.73-2.052-2.407.907a.354.354 0 01-.389-.094.352.352 0 01-.042-.396l2.174-3.955a6.245 6.245 0 001.795 1.058c.662.25 1.372.39 2.118.4.028 0 .052.003.08.003l.084-.003a6.19 6.19 0 003.914-1.458l2.173 3.955a.352.352 0 01-.042.397z" fill="#27AE60"/><path d="M7.905 0C4.863 0 2.389 2.48 2.389 5.523c0 3.047 2.474 5.527 5.516 5.527 3.045 0 5.52-2.48 5.52-5.527A5.528 5.528 0 007.905 0zm0 9.666c-2.307 0-4.183-1.857-4.183-4.142 0-2.282 1.876-4.14 4.183-4.14 2.31 0 4.186 1.858 4.186 4.14 0 2.285-1.876 4.142-4.186 4.142z" fill="#27AE60"/><path d="M10.753 5.005c-.003.007 0 .014 0 .021-.003.018-.01.032-.017.049-.004.017-.007.035-.018.056-.014.024-.031.045-.049.07-.007.006-.01.02-.02.027l-1.117 1.06.266 1.496a.348.348 0 01-.14.341.337.337 0 01-.368.028l-1.386-.71-1.382.71a.343.343 0 01-.368-.028.348.348 0 01-.14-.34l.266-1.496-1.117-1.061c-.01-.007-.014-.02-.02-.028-.018-.024-.035-.045-.05-.07-.01-.02-.013-.038-.017-.055-.007-.017-.014-.031-.017-.049 0-.007.003-.014 0-.02 0-.025.003-.05.007-.074a.16.16 0 01.01-.059c.004-.02.018-.038.028-.059.01-.02.021-.042.039-.059.003-.007.003-.014.01-.017.01-.01.025-.018.035-.025a.223.223 0 01.06-.042.373.373 0 01.066-.024c.014-.003.028-.01.042-.014l1.547-.219.69-1.367c.007-.01.017-.017.024-.031.014-.017.028-.038.046-.056l.052-.042c.014-.007.021-.017.035-.024.007-.003.014-.003.025-.007a.203.203 0 01.066-.017c.021-.004.042-.01.063-.01.025 0 .046.006.067.01a.21.21 0 01.066.017c.01.004.018.004.025.007.014.007.02.017.035.024l.052.042c.018.018.032.039.046.056.007.014.017.02.024.031l.69 1.367 1.547.22c.014.003.028.01.042.013a.387.387 0 01.066.024.27.27 0 01.06.042c.01.007.024.014.035.025.007.003.007.01.01.017.018.017.028.038.039.059.01.02.024.038.028.06a.15.15 0 01.01.058c.004.025.007.05.007.073z" fill="#27AE60"/></svg>