<svg width="24" height="24" fill="none" xmlns="http://www.w3.org/2000/svg"><g clip-path="url(#clip0_20_2969)" fill="#fff"><path d="M12 16.704a.423.423 0 01-.33-.131c-1.842-1.613-4.113-3.654-4.113-5.99 0-2.042 1.25-2.766 2.435-2.766.823 0 1.58.626 2.008 1.087.428-.461 1.185-1.087 2.008-1.087 1.185 0 2.436.724 2.436 2.765 0 2.37-2.272 4.378-4.115 5.99a.423.423 0 01-.329.132zm-2.008-7.9c-.921 0-1.448.626-1.448 1.778 0 1.777 1.843 3.522 3.456 4.97 1.613-1.448 3.456-3.193 3.456-4.97 0-1.547-.921-1.777-1.448-1.777-.626 0-1.383.855-1.613 1.152-.197.263-.625.263-.79 0-.23-.297-.987-1.152-1.613-1.152z"/><path d="M23.882 11.602L22.27 9.891l.856-2.206c.099-.23-.033-.526-.263-.625l-2.14-.954-.066-2.337c0-.264-.23-.461-.493-.494l-2.337-.066-.955-2.14c-.098-.23-.395-.361-.625-.263l-2.205.856L12.329.05a.478.478 0 00-.691 0L9.926 1.662 7.721.807c-.23-.1-.527.032-.625.263L6.14 3.21l-2.337.065c-.263 0-.46.23-.493.494l-.066 2.337-2.14.954c-.23.099-.362.395-.263.626l.856 2.205-1.58 1.711a.477.477 0 000 .692l1.613 1.711-.856 2.205c-.099.23.033.527.263.626l2.14.954.066 2.337c0 .264.23.461.493.494l2.337.066.955 2.14c.098.23.395.361.625.262l2.205-.855 1.712 1.613c.099.098.23.131.33.131.098 0 .23-.033.328-.131l1.712-1.613 2.205.855c.23.1.461 0 .593-.197l7.11-10.631c.098-.264.098-.494-.067-.659zm-6.747 9.019l-.362-1.152 1.283-1.185a.484.484 0 00.165-.461l-.362-2.172 2.14-.494a.517.517 0 00.361-.33l.593-1.645 1.217-.099-5.035 7.538zm-.922 1.35l-2.107-.823a.516.516 0 00-.526.098L12 22.76l-1.58-1.514a.472.472 0 00-.33-.132c-.065 0-.13 0-.164.033l-2.04.79-.89-2.008a.507.507 0 00-.427-.296l-2.205-.066-.066-2.205a.469.469 0 00-.296-.428l-2.008-.889.79-2.04a.516.516 0 00-.099-.527l-1.514-1.547 1.514-1.58c.132-.13.165-.329.1-.526l-.79-2.04 2.007-.89a.507.507 0 00.296-.427l.066-2.206 2.205-.066a.469.469 0 00.428-.296l.889-2.007 2.04.79a.516.516 0 00.527-.1l1.58-1.513 1.58 1.514c.131.131.33.164.527.099l2.04-.79.889 2.007a.507.507 0 00.428.296l2.205.066.066 2.206a.47.47 0 00.296.428l2.008.888-.856 2.04a.516.516 0 00.099.528l1.547 1.645-.033.066-2.304.198c-.198.033-.362.131-.428.329l-.626 1.712-2.337.526c-.263.066-.428.296-.362.56l.395 2.37-1.316 1.217a.512.512 0 00-.132.527l.724 2.205-.23.263z"/></g><defs><clipPath id="clip0_20_2969"><path fill="#fff" d="M0 0h24v24H0z"/></clipPath></defs></svg>