<svg width="24" height="24" fill="none" xmlns="http://www.w3.org/2000/svg"><g clip-path="url(#clip0_157_6005)" fill="#C9C6C6"><path d="M23.63 2.384c-.294-.358-.733-.556-1.237-.556-.274 0-.565.058-.863.172L1.214 9.755C.136 10.166-.009 10.784 0 11.115c.01.332.19.94 1.29 1.29l.02.006 2.848.815 13.876-7.089a.703.703 0 01.832 1.108l-7.715 8.198-.22.892 2.755 2.218 3.818 3.074.01.008c.42.326.879.498 1.327.498.875 0 1.572-.648 1.775-1.65l3.33-16.437c.133-.66.02-1.25-.317-1.662z"/><path d="M9.831 14.927a.702.702 0 01.17-.314l5.063-5.379-9.394 4.8 2.133 6.1c.121.347.302.643.526.875l1.502-6.082zm-.194 6.646c.507-.004 1.005-.218 1.441-.62l1.561-1.437-2.08-1.675-.922 3.732z"/></g><defs><clipPath id="clip0_157_6005"><path fill="#fff" d="M0 0h24v24H0z"/></clipPath></defs></svg>