<svg width="20" height="20" fill="none" xmlns="http://www.w3.org/2000/svg"><path d="M10 2.567c-3.772 0-7.3 2.453-9.933 6.908a.477.477 0 000 .486c2.632 4.455 6.16 6.908 9.933 6.908 3.772 0 7.301-2.454 9.934-6.908a.483.483 0 000-.486C17.301 5.02 13.774 2.567 10 2.567zm0 13.349c-3.355 0-6.531-2.2-8.969-6.198C3.47 5.719 6.645 3.52 10.002 3.52c3.354 0 6.53 2.199 8.968 6.198-2.438 3.999-5.614 6.197-8.969 6.197zm0-9.535a3.33 3.33 0 00-2.357.977A3.339 3.339 0 0010 13.055a3.339 3.339 0 000-6.674zm0 5.72a2.379 2.379 0 01-2.38-2.383A2.384 2.384 0 0110 7.334a2.379 2.379 0 012.381 2.384 2.384 2.384 0 01-2.38 2.384z" fill="#686868"/></svg>