<svg width="24" height="24" fill="none" xmlns="http://www.w3.org/2000/svg"><path d="M12 3.08c-4.527 0-8.76 2.944-11.92 8.29a.572.572 0 000 .583c3.159 5.346 7.393 8.29 11.92 8.29s8.762-2.944 11.921-8.29a.58.58 0 000-.583c-3.16-5.346-7.393-8.29-11.92-8.29zm0 16.02c-4.026 0-7.838-2.639-10.762-7.438C4.162 6.864 7.974 4.224 12 4.224c4.026 0 7.838 2.639 10.762 7.438-2.924 4.798-6.736 7.437-10.762 7.437zm0-11.442a4.007 4.007 0 000 8.01 4.007 4.007 0 000-8.01zm0 6.865a2.855 2.855 0 01-2.857-2.86A2.861 2.861 0 0112 8.802a2.861 2.861 0 010 5.72z" fill="#C9C6C6"/></svg>