<svg width="24" height="24" fill="none" xmlns="http://www.w3.org/2000/svg"><g clip-path="url(#clip0_157_6019)"><path d="M0 24l2.064-6.192a11.73 11.73 0 01-1.65-6.015C.414 5.28 5.694 0 12.207 0 18.72 0 24 5.28 24 11.793c0 6.513-5.28 11.793-11.793 11.793-1.982 0-3.848-.491-5.487-1.354L0 24z" fill="#C9C6C6"/><path d="M19.73 15.718c-.544-1.03-2.553-2.206-2.553-2.206-.454-.26-1.002-.288-1.261.173 0 0-.653.783-.819.896-.758.513-1.46.493-2.169-.216l-1.647-1.647-1.647-1.647c-.71-.71-.73-1.411-.216-2.17.113-.165.896-.818.896-.818.461-.26.432-.807.173-1.262 0 0-1.177-2.008-2.206-2.552a1.128 1.128 0 00-1.325.2l-.727.727c-2.308 2.307-1.172 4.913 1.136 7.22l2.109 2.11 2.109 2.108c2.308 2.308 4.913 3.444 7.22 1.137l.728-.728c.35-.35.43-.888.2-1.325z" fill="#F7F7F7"/></g><defs><clipPath id="clip0_157_6019"><path fill="#fff" d="M0 0h24v24H0z"/></clipPath></defs></svg>